<svg width="19" height="19" viewBox="0 0 19 19" fill="none" xmlns="http://www.w3.org/2000/svg">
<g clip-path="url(#clip0_1932_1374)">
<path d="M16.625 1.1875C16.9399 1.1875 17.242 1.31261 17.4647 1.53531C17.6874 1.75801 17.8125 2.06006 17.8125 2.375V16.625C17.8125 16.9399 17.6874 17.242 17.4647 17.4647C17.242 17.6874 16.9399 17.8125 16.625 17.8125H2.375C2.06006 17.8125 1.75801 17.6874 1.53531 17.4647C1.31261 17.242 1.1875 16.9399 1.1875 16.625V2.375C1.1875 2.06006 1.31261 1.75801 1.53531 1.53531C1.75801 1.31261 2.06006 1.1875 2.375 1.1875H16.625ZM2.375 0C1.74511 0 1.14102 0.250223 0.695621 0.695621C0.250223 1.14102 0 1.74511 0 2.375L0 16.625C0 17.2549 0.250223 17.859 0.695621 18.3044C1.14102 18.7498 1.74511 19 2.375 19H16.625C17.2549 19 17.859 18.7498 18.3044 18.3044C18.7498 17.859 19 17.2549 19 16.625V2.375C19 1.74511 18.7498 1.14102 18.3044 0.695621C17.859 0.250223 17.2549 0 16.625 0L2.375 0Z" fill="black"/>
<path d="M13.0269 5.9019C13.1931 5.73716 13.4174 5.64445 13.6514 5.6438C13.8854 5.64316 14.1103 5.73463 14.2774 5.89845C14.4445 6.06227 14.5404 6.28528 14.5444 6.51925C14.5484 6.75322 14.4601 6.97936 14.2987 7.14878L9.55818 13.0744C9.47671 13.1622 9.37838 13.2326 9.26907 13.2815C9.15975 13.3303 9.04171 13.3567 8.92198 13.3589C8.80226 13.3611 8.68332 13.3392 8.57227 13.2944C8.46122 13.2496 8.36035 13.1828 8.27568 13.0982L5.13475 9.95603C5.04724 9.87449 4.97706 9.77617 4.92838 9.66692C4.8797 9.55767 4.85353 9.43973 4.85142 9.32015C4.84931 9.20056 4.87131 9.08178 4.9161 8.97088C4.96089 8.85998 5.02757 8.75924 5.11214 8.67467C5.19671 8.5901 5.29745 8.52343 5.40835 8.47863C5.51925 8.43384 5.63803 8.41184 5.75762 8.41395C5.8772 8.41606 5.99514 8.44223 6.10439 8.49091C6.21363 8.53959 6.31196 8.60977 6.3935 8.69728L8.88012 11.1827L13.0043 5.92803C13.0117 5.91883 13.0184 5.9101 13.0269 5.9019Z" fill="black"/>
</g>
<defs>
<clipPath id="clip0_1932_1374">
<rect width="19" height="19" fill="white"/>
</clipPath>
</defs>
</svg>
