<svg width="48" height="49" viewBox="0 0 48 49" fill="none" xmlns="http://www.w3.org/2000/svg">
<g clip-path="url(#clip0_1930_888)">
<path fill-rule="evenodd" clip-rule="evenodd" d="M45 24.5C45 18.9305 42.7875 13.589 38.8492 9.65076C34.911 5.71249 29.5695 3.5 24 3.5C18.4305 3.5 13.089 5.71249 9.15076 9.65076C5.21249 13.589 3 18.9305 3 24.5C3 30.0695 5.21249 35.411 9.15076 39.3492C13.089 43.2875 18.4305 45.5 24 45.5C29.5695 45.5 34.911 43.2875 38.8492 39.3492C42.7875 35.411 45 30.0695 45 24.5ZM0 24.5C0 18.1348 2.52856 12.0303 7.02944 7.52944C11.5303 3.02856 17.6348 0.5 24 0.5C30.3652 0.5 36.4697 3.02856 40.9706 7.52944C45.4714 12.0303 48 18.1348 48 24.5C48 30.8652 45.4714 36.9697 40.9706 41.4706C36.4697 45.9714 30.3652 48.5 24 48.5C17.6348 48.5 11.5303 45.9714 7.02944 41.4706C2.52856 36.9697 0 30.8652 0 24.5ZM22.5 14C22.5 13.6022 22.658 13.2206 22.9393 12.9393C23.2206 12.658 23.6022 12.5 24 12.5C24.3978 12.5 24.7794 12.658 25.0607 12.9393C25.342 13.2206 25.5 13.6022 25.5 14L25.5 31.379L31.938 24.938C32.2197 24.6563 32.6017 24.4981 33 24.4981C33.3983 24.4981 33.7803 24.6563 34.062 24.938C34.3437 25.2197 34.5019 25.6017 34.5019 26C34.5019 26.3983 34.3437 26.7803 34.062 27.062L25.062 36.062C24.9227 36.2017 24.7571 36.3125 24.5749 36.3881C24.3927 36.4638 24.1973 36.5027 24 36.5027C23.8027 36.5027 23.6073 36.4638 23.4251 36.3881C23.2429 36.3125 23.0773 36.2017 22.938 36.062L13.938 27.062C13.6563 26.7803 13.4981 26.3983 13.4981 26C13.4981 25.6017 13.6563 25.2197 13.938 24.938C14.2197 24.6563 14.6017 24.4981 15 24.4981C15.3983 24.4981 15.7803 24.6563 16.062 24.938L22.5 31.379L22.5 14Z" fill="#FAB433"/>
</g>
<defs>
<clipPath id="clip0_1930_888">
<rect width="48" height="48" fill="white" transform="matrix(-1 0 0 -1 48 48.5)"/>
</clipPath>
</defs>
</svg>
