<svg width="18" height="18" viewBox="0 0 18 18" fill="none" xmlns="http://www.w3.org/2000/svg">
<path d="M6.75 8.43V5.625C6.75 4.59 7.59 3.75 8.625 3.75C9.66 3.75 10.5 4.59 10.5 5.625V8.43C11.4075 7.8225 12 6.795 12 5.625C12 3.7575 10.4925 2.25 8.625 2.25C6.7575 2.25 5.25 3.7575 5.25 5.625C5.25 6.795 5.8425 7.8225 6.75 8.43ZM14.13 11.9025L10.725 10.2075C10.5975 10.155 10.4625 10.125 10.32 10.125H9.75V5.625C9.75 5.0025 9.2475 4.5 8.625 4.5C8.0025 4.5 7.5 5.0025 7.5 5.625V13.68C4.8 13.11 4.845 13.1175 4.7475 13.1175C4.515 13.1175 4.305 13.215 4.155 13.365L3.5625 13.965L7.2675 17.67C7.47 17.8725 7.755 18 8.0625 18H13.155C13.7175 18 14.1525 17.5875 14.235 17.04L14.7975 13.0875C14.805 13.035 14.8125 12.9825 14.8125 12.9375C14.8125 12.4725 14.5275 12.0675 14.13 11.9025Z" fill="#0E0E0E"/>
</svg>
